<svg id="Capa_1" enable-background="new 0 0 512 512" height="512" viewBox="0 0 512 512" width="512" xmlns="http://www.w3.org/2000/svg"><g><g><path d="m297.417 140.033c-23.801 0-42.897-20.421-41.18-44.563 1.41-19.817 17.108-36.027 36.872-38.05 2.782-.285 5.513-.289 8.171-.041 3.628.338 6.974-1.954 8.161-5.398 8.925-25.883 33.481-44.481 62.396-44.481 21.694 0 40.935 10.471 52.965 26.631 3.067 4.12 7.852 6.537 12.988 6.504.104-.001.209-.001.314-.001 27.731 0 50.158 22.712 49.693 50.549-.455 27.251-23.256 48.851-50.511 48.851h-139.869z" fill="#ddeafb"/><path d="m438.104 40.633c-.105 0-.209 0-.314.001-5.136.034-9.921-2.384-12.988-6.504-12.03-16.159-31.271-26.63-52.965-26.63-3.918 0-7.751.353-11.481 1.007 16.908 2.978 31.595 12.392 41.445 25.623 3.067 4.12 7.852 6.537 12.988 6.504.104-.001.209-.001.314-.001 27.731 0 50.158 22.712 49.693 50.549-.455 27.251-23.256 48.851-50.511 48.851h23c27.255 0 50.056-21.6 50.511-48.851.466-27.837-21.961-50.549-49.692-50.549z" fill="#bed8fb"/><g><g><path d="m438.233 173.167h-.023c-1.221 0-2.271-.821-2.613-1.993-8.026-27.564-33.476-47.707-63.631-47.707-11.275 0-21.887 2.825-31.179 7.795-3.642 1.948-8.163.93-10.478-2.49-8.934-13.196-24.04-21.872-41.176-21.872-4.008 0-7.903.477-11.635 1.374-4.043.972-8.218-1.2-9.524-5.148-12.002-36.299-46.202-62.492-86.524-62.492-50.322 0-91.117 40.794-91.117 91.117 0 1.143.029 2.278.077 3.409.047 1.119-.32 2.217-1.009 3.1l-.071.091c-.863 1.106-2.17 1.758-3.571 1.835-44.09 2.402-79.009 39.258-78.247 84.123.771 45.352 38.501 81.391 83.861 81.391h345.872c36.419 0 66.776-28.971 67.249-65.387.48-37.001-29.37-67.146-66.261-67.146z" fill="#ecf4ff"/><path d="m438.233 173.167h-.023c-1.221 0-2.271-.821-2.613-1.993-8.026-27.564-33.476-47.707-63.631-47.707-11.275 0-21.887 2.825-31.179 7.795-3.642 1.948-8.163.93-10.478-2.49-8.934-13.196-24.04-21.872-41.176-21.872-4.008 0-7.903.477-11.635 1.374-4.043.972-8.218-1.2-9.524-5.148-12.002-36.299-46.202-62.492-86.524-62.492-50.322 0-91.117 40.794-91.117 91.117 0 1.143.029 2.278.077 3.409.047 1.119-.32 2.217-1.009 3.1l-.071.091c-.863 1.106-2.17 1.758-3.571 1.835-44.09 2.402-79.009 39.258-78.247 84.123.771 45.352 38.501 81.391 83.861 81.391h345.872c36.419 0 66.776-28.971 67.249-65.387.48-37.001-29.37-67.146-66.261-67.146z" fill="#ecf4ff"/><path d="m438.233 173.167h-.023c-1.22 0-2.271-.821-2.613-1.993-8.026-27.564-33.476-47.707-63.631-47.707-3.921 0-7.759.349-11.492 1.004 24.976 4.374 45.142 22.728 52.123 46.703.341 1.172 1.392 1.993 2.613 1.993h.023c36.891 0 66.741 30.145 66.261 67.146-.472 36.417-30.829 65.387-67.249 65.387h23c36.419 0 66.776-28.97 67.249-65.387.48-37.001-29.37-67.146-66.261-67.146z" fill="#ddeafb"/></g></g></g><g><path d="m106.434 298.2h-16.1c-41.54 0-75.334-33.794-75.334-75.333 0-41.514 33.753-75.293 75.257-75.334.152.005.305.01.456.01h.002c41.364.208 74.952 33.913 74.952 75.324 0 4.142 3.358 7.5 7.5 7.5s7.5-3.358 7.5-7.5c0-47.276-36.506-86.18-82.807-90.017-.005-.365-.026-.737-.026-1.099 0-17.086 5.117-33.515 14.797-47.509 2.356-3.406 1.505-8.078-1.901-10.434-3.405-2.358-8.079-1.505-10.435 1.901-11.423 16.512-17.462 35.891-17.462 56.041 0 .363.002.726.006 1.091-46.317 3.822-82.839 42.739-82.839 90.026 0 49.81 40.523 90.333 90.333 90.333h16.1c4.142 0 7.5-3.358 7.5-7.5.001-4.142-3.357-7.5-7.499-7.5z"/><path d="m441.747 165.749c-2.254-6.581-5.392-12.694-9.252-18.227l5.738.012c31.54 0 57.2-25.66 57.2-57.2 0-31.541-25.66-57.2-57.2-57.2-1.56 0-3.136.067-4.716.2-13.518-20.684-36.655-33.334-61.55-33.334-31.954 0-59.654 20.206-69.633 49.935-1.59-.156-3.188-.234-4.788-.234-15.729 0-30.361 7.718-39.42 20.067-4.452-5.512-9.5-10.563-15.071-15.026-17.395-13.934-39.273-21.608-61.605-21.608-21.287 0-41.557 6.676-58.619 19.305-3.329 2.464-4.03 7.161-1.566 10.49s7.161 4.03 10.491 1.566c14.46-10.704 31.645-16.362 49.694-16.362 36.938 0 68.924 23.782 79.77 58.52-17.757 9.918-29.287 28.845-29.287 49.947 0 4.142 3.358 7.5 7.5 7.5s7.5-3.358 7.5-7.5c0-17.243 10.431-32.515 25.98-38.969.024-.01.048-.016.072-.025 5.13-2.127 10.562-3.206 16.148-3.206 16.235 0 31.217 9.494 38.167 24.186.943 1.996 2.72 3.475 4.853 4.042 2.133.566 4.409.166 6.22-1.1 9.894-6.909 21.51-10.561 33.593-10.561 26.854 0 50.264 18.141 56.927 44.116.872 3.401 3.949 5.735 7.498 5.633 0 0 1.397-.049 1.842-.049 32.404 0 58.767 26.363 58.767 58.767s-26.362 58.767-58.767 58.767-58.767-26.363-58.767-58.767c0-4.142-3.357-7.5-7.5-7.5s-7.5 3.358-7.5 7.5c0 23.962 11.491 45.284 29.244 58.767h-256.893c-4.142 0-7.5 3.358-7.5 7.5s3.358 7.5 7.5 7.5h301.417c40.675 0 73.767-33.092 73.767-73.767-.001-39.499-31.203-71.846-70.254-73.685zm-104.999-40.832c-10.508-15.723-28.413-25.517-47.614-25.517-4.74 0-9.4.574-13.932 1.712-2.021-6.166-4.668-12.109-7.854-17.749 5.676-11.28 17.403-18.663 30.198-18.663 2.809 0 5.607.348 8.316 1.033 1.951.493 4.021.182 5.74-.865 1.72-1.047 2.946-2.741 3.403-4.702 6.204-26.593 29.627-45.166 56.962-45.166 17.902 0 34.661 8.222 45.668 21.953-21.733 8.336-36.602 29.296-36.602 53.38 0 4.142 3.357 7.5 7.5 7.5s7.5-3.358 7.5-7.5c0-20.557 14.67-38.039 34.881-41.569 2.451-.428 4.92-.631 7.319-.631 23.27 0 42.2 18.931 42.2 42.2s-18.931 42.2-42.185 42.2l-19.734-.04c-12.816-10.412-29.099-16.526-46.548-16.526-12.419 0-24.446 3.074-35.218 8.95z"/><path d="m40.633 331.333c-4.142 0-7.5 3.358-7.5 7.5v66.267c0 4.142 3.358 7.5 7.5 7.5s7.5-3.358 7.5-7.5v-66.267c0-4.142-3.358-7.5-7.5-7.5z"/><path d="m148.317 331.333c-4.142 0-7.5 3.358-7.5 7.5v66.267c0 4.142 3.358 7.5 7.5 7.5s7.5-3.358 7.5-7.5v-66.267c0-4.142-3.358-7.5-7.5-7.5z"/><path d="m94.475 430.733c-4.142 0-7.5 3.358-7.5 7.5v66.267c0 4.142 3.358 7.5 7.5 7.5s7.5-3.358 7.5-7.5v-66.267c0-4.142-3.358-7.5-7.5-7.5z"/><path d="m202.158 430.733c-4.142 0-7.5 3.358-7.5 7.5v66.267c0 4.142 3.358 7.5 7.5 7.5s7.5-3.358 7.5-7.5v-66.267c0-4.142-3.358-7.5-7.5-7.5z"/><path d="m309.842 430.733c-4.143 0-7.5 3.358-7.5 7.5v66.267c0 4.142 3.357 7.5 7.5 7.5s7.5-3.358 7.5-7.5v-66.267c0-4.142-3.358-7.5-7.5-7.5z"/><path d="m256 331.333c-4.142 0-7.5 3.358-7.5 7.5v66.267c0 4.142 3.358 7.5 7.5 7.5 4.143 0 7.5-3.358 7.5-7.5v-66.267c0-4.142-3.357-7.5-7.5-7.5z"/><path d="m363.684 331.333c-4.143 0-7.5 3.358-7.5 7.5v66.267c0 4.142 3.357 7.5 7.5 7.5s7.5-3.358 7.5-7.5v-66.267c0-4.142-3.358-7.5-7.5-7.5z"/><path d="m471.366 331.333c-4.143 0-7.5 3.358-7.5 7.5v66.267c0 4.142 3.357 7.5 7.5 7.5s7.5-3.358 7.5-7.5v-66.267c0-4.142-3.357-7.5-7.5-7.5z"/><path d="m417.525 430.733c-4.143 0-7.5 3.358-7.5 7.5v66.267c0 4.142 3.357 7.5 7.5 7.5s7.5-3.358 7.5-7.5v-66.267c0-4.142-3.357-7.5-7.5-7.5z"/></g></g></svg>